<?xml version="1.0" encoding="UTF-8" standalone="no"?>
<svg
   version="1.1"
   width="3.8127375in"
   height="3.8253415in"
   viewBox="0 0 274.51764 275.42492"
   id="svg9"
   xmlns="http://www.w3.org/2000/svg"
   xmlns:svg="http://www.w3.org/2000/svg">
  <defs
     id="defs9" />
  <g
     id="g9"
     transform="translate(-171.10629,-325.85138)">
    <path
       d="m 292.5651,326.8742 c -33.551,4.5783 -68.1285,20.8851 -89.6323,47.4697 -50.3286,62.2198 -38.3086,151.4886 17.3572,194.4641 30.5013,23.5477 63.5673,36.8347 104.8162,31.1665 19.1731,-2.6346 36.5699,-8.7262 51.0347,-17.1251 14.872,-8.6352 17.3848,-11.4082 28.9222,-22.1424 8.0435,-7.4841 9.2291,-9.8566 15.6135,-18.4785 2.4245,-3.2745 4.274,-6.2663 6.7357,-10.2731 14.7015,-23.9275 20.7348,-56.7057 17.2488,-85.6141 -4.5415,-37.6631 -22.5823,-65.5252 -48.3468,-88.8311 -10.0414,-9.0834 -27.5872,-18.8159 -43.6968,-24.423 -17.6032,-6.1266 -40.4067,-8.8936 -60.0524,-6.213 z"
       style="fill:#13405e;fill-rule:evenodd"
       id="path2" />
    <path
       d="m 281.3597,413.2594 -7.0552,7.0552 c -7.1457,-5.774 -27.9313,-27.3733 -38.4106,-36.4521 -3.4764,2.6617 -6.3908,4.4258 -8.5736,9.4459 l 37.5453,36.4451 -5.0529,5.053 c -11.6595,-0.015 -43.3372,0.1685 -57.5481,0 v 53.2699 h 55.0674 l 7.0656,6.9155 -36.7311,35.4932 8.0628,7.9778 36.0642,-36.202 6.89,7.0169 2.9716,55.508 47.2731,-0.5257 -1.6611,-53.3501 8.4985,-8.4984 37.8466,36.2925 8.774,-9.6468 -36.9251,-36.3417 4.861,-4.861 59.3663,0.2218 -0.4387,-53.2699 c -14.5212,0 -44.4333,-0.009 -55.3717,0 l -6.8055,-6.623 35.0014,-35.3839 -7.7709,-8.956 -36.658,34.7299 -5.6915,-5.6915 v -55.0922 l -53.27,-0.0871 v 58.2329 z"
       style="fill:#fefefe;fill-rule:evenodd"
       id="path4" />
    <path
       d="m 356.8719,483.1453 2.5532,-7.1183 -18.9346,-0.0403 3.7644,-10.3561 15.3967,-0.0884 2.5888,-7.0224 -15.2264,-0.0693 3.9765,-10.7511 42.3718,-0.016 c -0.7468,2.4749 -2.341,7.0108 -3.4345,9.2519 -1.9518,4.0004 -4.7665,3.094 -9.612,3.094 l 3.4216,-9.2372 -9.901,-0.022 -11.9432,32.3622 9.9074,0.013 5.813,-15.9393 c 5.1282,-0.2399 9.1287,0.1847 8.555,1.546 -0.4547,3.6823 -3.0319,10.0728 -4.6571,14.3359 l 9.7725,0.0615 c 2.9696,-10.0945 9.2703,-17.8815 1.9374,-19.7194 1.3781,-1.1085 3.9616,-1.0737 5.9918,-5.0854 1.1588,-2.2899 2.1087,-5.4694 3.0654,-7.9634 3.9061,-10.1823 0.7532,-9.7902 -9.0039,-9.7902 -4.3027,0 -41.1498,-0.2235 -44.3697,0.0824 -6.713,0.6377 -7.5029,6.3666 -9.7318,12.2773 -2.0608,5.4653 -3.9832,10.8294 -6.0822,16.2486 -6.4862,16.7458 -5.8782,13.946 23.7809,13.946 z"
       style="fill:#13405e;fill-rule:evenodd"
       id="path5" />
    <path
       d="m 211.8991,483.1453 c 13.9201,0 8.1544,0.0266 11.7332,0.0405 l 10.5631,-23.0446 c 0.6083,-1.4191 3.2752,-6.7259 3.4358,-7.5998 l -1.9688,30.6037 11.6932,2e-4 23.3592,-42.5227 -10.2252,-0.0316 -16.0794,30.9288 1.7687,-30.9285 -10.7753,-3e-4 c -1.9559,5.0436 -4.8881,10.2732 -7.0902,15.2377 -1.147,2.5857 -2.4065,5.0216 -3.6214,7.6625 -0.6122,1.3307 -1.1278,2.4012 -1.7675,3.7442 l -2.0493,3.9741 2.0555,-30.6176 -12.6828,0.006 c 0.9362,2.8277 3.0394,5.3728 2.9027,8.6578 z"
       style="fill:#13405e;fill-rule:evenodd"
       id="path6" />
    <path
       d="m 258.8399,483.0876 9.849,0.0508 4.61,-12.535 9.8183,0.003 -4.6103,12.4687 9.8831,0.0636 15.7216,-42.4307 c -1.7558,-0.3338 -18.4611,-0.1161 -21.6886,-0.1192 -8.6218,-0.008 -9.098,3.5735 -11.7034,10.368 -2.0607,5.3741 -3.9317,10.6772 -5.9695,16.0934 -1.0213,2.7146 -1.9664,5.4497 -2.9711,8.055 -0.9251,2.3991 -2.3006,5.6352 -2.9391,7.9827 z"
       style="fill:#13405e;fill-rule:evenodd"
       id="path7" />
    <path
       d="m 294.3601,483.0292 9.8658,0.124 5.8798,-15.9467 15.3974,-0.0882 2.5888,-7.0225 -15.285,-0.0692 4.5563,-12.3288 18.4218,-0.0144 2.6401,-7.0837 c -7.1681,-0.009 -14.4724,-0.1587 -21.5973,-0.006 -7.693,0.1642 -8.5213,4.8106 -10.7645,11.0296 -3.7377,10.3616 -7.7658,21.0831 -11.7032,31.4064 z"
       style="fill:#13405e;fill-rule:evenodd"
       id="path8" />
    <path
       d="m 275.9438,463.3475 9.8292,0.0333 5.899,-15.6876 -9.9615,0.001 z"
       style="fill:#ffffff;fill-rule:evenodd"
       id="path9" />
  </g>
</svg>
