<?xml version="1.0" encoding="UTF-8" standalone="no"?>
<!-- Created with Inkscape (http://www.inkscape.org/) -->

<svg
   width="152.53102mm"
   height="143.08582mm"
   viewBox="0 0 152.53102 143.08582"
   version="1.1"
   id="svg1"
   inkscape:version="1.3.2 (091e20e, 2023-11-25, custom)"
   sodipodi:docname="waferlogobigwnameout.svg"
   xmlns:inkscape="http://www.inkscape.org/namespaces/inkscape"
   xmlns:sodipodi="http://sodipodi.sourceforge.net/DTD/sodipodi-0.dtd"
   xmlns="http://www.w3.org/2000/svg"
   xmlns:svg="http://www.w3.org/2000/svg">
  <sodipodi:namedview
     id="namedview1"
     pagecolor="#ffffff"
     bordercolor="#000000"
     borderopacity="0.25"
     inkscape:showpageshadow="2"
     inkscape:pageopacity="0.0"
     inkscape:pagecheckerboard="0"
     inkscape:deskcolor="#d1d1d1"
     inkscape:document-units="mm"
     inkscape:zoom="0.72426347"
     inkscape:cx="396.95499"
     inkscape:cy="559.87913"
     inkscape:window-width="1920"
     inkscape:window-height="1009"
     inkscape:window-x="1912"
     inkscape:window-y="-8"
     inkscape:window-maximized="1"
     inkscape:current-layer="layer1" />
  <defs
     id="defs1" />
  <g
     inkscape:label="Capa 1"
     inkscape:groupmode="layer"
     id="layer1"
     transform="translate(-28.839171,-76.99336)">
    <path
       d="m 98.329188,77.384086 c -12.804719,1.747305 -26.001232,7.970789 -34.208171,18.116802 -19.207908,23.746212 -14.620463,57.815602 6.62438,74.217202 11.640837,8.987 24.260453,14.05799 40.003063,11.89469 7.31745,-1.00548 13.95693,-3.33036 19.4774,-6.53579 5.67594,-3.29561 6.63493,-4.35391 11.03815,-8.45064 3.06983,-2.8563 3.5223,-3.76177 5.95894,-7.0523 0.92529,-1.24971 1.63113,-2.39155 2.57065,-3.92077 5.61085,-9.13188 7.91343,-21.64168 6.583,-32.67457 -1.73327,-14.37412 -8.61856,-25.007711 -18.45156,-33.902389 -3.83229,-3.466671 -10.52863,-7.181097 -16.67687,-9.321043 -6.71825,-2.338208 -15.4212,-3.394211 -22.918982,-2.371192 z"
       style="fill:#13405e;fill-rule:evenodd;stroke:#000000;stroke-width:0.0007636;stroke-linejoin:round;stroke-dasharray:none;stroke-opacity:1"
       id="path1"
       inkscape:export-filename="path1.svg"
       inkscape:export-xdpi="67.647812"
       inkscape:export-ydpi="67.647812" />
    <path
       d="m 95.978739,112.55428 -2.488913,2.48891 c -2.52084,-2.03697 -9.853526,-9.65667 -13.55042,-12.8595 -1.226359,0.93902 -2.254493,1.56132 -3.024535,3.3323 l 13.245126,12.85703 -1.782583,1.78255 c -4.113206,-0.005 -15.288377,0.0595 -20.301623,0 v 18.79244 h 19.426488 l 2.492618,2.4396 -12.95793,12.52119 2.844372,2.81439 12.722628,-12.77124 2.43067,2.4754 1.048313,19.58196 16.67687,-0.18546 -0.586,-18.82066 2.99805,-2.99808 13.35145,12.80317 3.09527,-3.40318 -13.02634,-12.82052 1.71482,-1.71485 20.94307,0.0783 -0.15472,-18.79244 c -5.12275,0 -15.67509,-0.003 -19.53388,0 l -2.40086,-2.33644 12.3477,-12.48264 -2.74136,-3.15947 -12.93211,12.25192 -2.00783,-2.00783 V 92.985834 l -18.792443,-0.03069 v 20.543206 z"
       style="fill:#fefefe;fill-rule:evenodd;stroke:#000000;stroke-width:0.00035774;stroke-linejoin:round;stroke-dasharray:none;stroke-opacity:1"
       id="path3" />
    <g
       id="g14"
       transform="matrix(0.78761234,0,0,0.78761234,-136.75427,-160.59091)"
       style="stroke:#000000;stroke-width:0.00101408;stroke-linejoin:round;stroke-dasharray:none;stroke-opacity:1">
      <path
         d="m 356.8719,483.1453 2.5532,-7.1183 -18.9346,-0.0403 3.7644,-10.3561 15.3967,-0.0884 2.5888,-7.0224 -15.2264,-0.0693 3.9765,-10.7511 42.3718,-0.016 c -0.7468,2.4749 -2.341,7.0108 -3.4345,9.2519 -1.9518,4.0004 -4.7665,3.094 -9.612,3.094 l 3.4216,-9.2372 -9.901,-0.022 -11.9432,32.3622 9.9074,0.013 5.813,-15.9393 c 5.1282,-0.2399 9.1287,0.1847 8.555,1.546 -0.4547,3.6823 -3.0319,10.0728 -4.6571,14.3359 l 9.7725,0.0615 c 2.9696,-10.0945 9.2703,-17.8815 1.9374,-19.7194 1.3781,-1.1085 3.9616,-1.0737 5.9918,-5.0854 1.1588,-2.2899 2.1087,-5.4694 3.0654,-7.9634 3.9061,-10.1823 0.7532,-9.7902 -9.0039,-9.7902 -4.3027,0 -41.1498,-0.2235 -44.3697,0.0824 -6.713,0.6377 -7.5029,6.3666 -9.7318,12.2773 -2.0608,5.4653 -3.9832,10.8294 -6.0822,16.2486 -6.4862,16.7458 -5.8782,13.946 23.7809,13.946 z"
         style="fill:#13405e;fill-rule:evenodd;stroke:#000000;stroke-width:0.00101408;stroke-linejoin:round;stroke-dasharray:none;stroke-opacity:1"
         id="path10" />
      <path
         d="m 211.8991,483.1453 c 13.9201,0 8.1544,0.0266 11.7332,0.0405 l 10.5631,-23.0446 c 0.6083,-1.4191 3.2752,-6.7259 3.4358,-7.5998 l -1.9688,30.6037 11.6932,2e-4 23.3592,-42.5227 -10.2252,-0.0316 -16.0794,30.9288 1.7687,-30.9285 -10.7753,-3e-4 c -1.9559,5.0436 -4.8881,10.2732 -7.0902,15.2377 -1.147,2.5857 -2.4065,5.0216 -3.6214,7.6625 -0.6122,1.3307 -1.1278,2.4012 -1.7675,3.7442 l -2.0493,3.9741 2.0555,-30.6176 -12.6828,0.006 c 0.9362,2.8277 3.0394,5.3728 2.9027,8.6578 z"
         style="fill:#13405e;fill-rule:evenodd;stroke:#000000;stroke-width:0.00101408;stroke-linejoin:round;stroke-dasharray:none;stroke-opacity:1"
         id="path11" />
      <path
         d="m 258.8399,483.0876 9.849,0.0508 4.61,-12.535 9.8183,0.003 -4.6103,12.4687 9.8831,0.0636 15.7216,-42.4307 c -1.7558,-0.3338 -18.4611,-0.1161 -21.6886,-0.1192 -8.6218,-0.008 -9.098,3.5735 -11.7034,10.368 -2.0607,5.3741 -3.9317,10.6772 -5.9695,16.0934 -1.0213,2.7146 -1.9664,5.4497 -2.9711,8.055 -0.9251,2.3991 -2.3006,5.6352 -2.9391,7.9827 z"
         style="fill:#13405e;fill-rule:evenodd;stroke:#000000;stroke-width:0.00101408;stroke-linejoin:round;stroke-dasharray:none;stroke-opacity:1"
         id="path12" />
      <path
         d="m 294.3601,483.0292 9.8658,0.124 5.8798,-15.9467 15.3974,-0.0882 2.5888,-7.0225 -15.285,-0.0692 4.5563,-12.3288 18.4218,-0.0144 2.6401,-7.0837 c -7.1681,-0.009 -14.4724,-0.1587 -21.5973,-0.006 -7.693,0.1642 -8.5213,4.8106 -10.7645,11.0296 -3.7377,10.3616 -7.7658,21.0831 -11.7032,31.4064 z"
         style="fill:#13405e;fill-rule:evenodd;stroke:#000000;stroke-width:0.00101408;stroke-linejoin:round;stroke-dasharray:none;stroke-opacity:1"
         id="path13" />
      <path
         d="m 275.9438,463.3475 9.8292,0.0333 5.899,-15.6876 -9.9615,0.001 z"
         style="fill:#ffffff;fill-rule:evenodd;stroke:#000000;stroke-width:0.00101408;stroke-linejoin:round;stroke-dasharray:none;stroke-opacity:1"
         id="path14" />
    </g>
  </g>
</svg>
